<?xml version="1.0" standalone="no"?>
<!DOCTYPE svg PUBLIC "-//W3C//DTD SVG 20010904//EN"
 "http://www.w3.org/TR/2001/REC-SVG-20010904/DTD/svg10.dtd">
<svg version="1.0" xmlns="http://www.w3.org/2000/svg"
 width="512.000000pt" height="512.000000pt" viewBox="0 0 512.000000 512.000000"
 preserveAspectRatio="xMidYMid meet">

<g transform="translate(0.000000,512.000000) scale(0.100000,-0.100000)"
fill="#000000" stroke="none">
<path d="M2415 5114 c-100 -13 -234 -37 -244 -44 -18 -11 16 -140 37 -140 8 0
52 6 96 14 45 8 102 17 129 20 l47 6 0 -675 0 -675 -254 0 -253 0 -7 72 c-27
294 -148 594 -335 832 l-46 59 50 44 c99 87 282 199 397 242 l27 10 -25 68
c-14 37 -27 70 -29 72 -8 8 -244 -113 -323 -166 -344 -231 -586 -593 -666
-994 -30 -152 -41 -289 -31 -414 l7 -94 26 4 c15 2 48 7 75 10 l47 6 0 50 0
49 341 0 342 0 -7 -72 c-9 -95 -39 -229 -70 -318 -22 -65 -23 -72 -8 -77 9 -4
40 -16 69 -29 l52 -23 22 57 c35 94 68 237 81 353 l12 109 253 0 253 0 2 -222
3 -223 75 0 75 0 3 223 2 222 253 0 253 0 11 -101 c6 -55 13 -103 16 -105 2
-3 37 1 77 7 71 12 72 12 66 40 -3 16 -8 58 -12 94 l-7 65 343 0 343 0 -6 -83
c-3 -46 -7 -89 -9 -97 -2 -9 16 -17 57 -26 78 -17 82 -17 89 1 3 9 11 76 17
150 13 145 4 301 -26 447 -16 75 -69 253 -84 276 -6 10 -22 7 -72 -14 -35 -15
-65 -29 -67 -30 -2 -1 10 -40 26 -85 36 -101 59 -207 70 -311 l8 -78 -344 0
-345 0 7 68 c16 157 65 328 136 477 44 92 144 247 183 283 l25 23 57 -78 c31
-43 68 -97 82 -120 14 -24 30 -43 36 -43 7 0 38 15 69 33 l58 33 -61 94 c-102
158 -203 271 -339 379 -282 225 -594 338 -950 346 -85 2 -168 2 -185 -1z m426
-175 c235 -46 486 -167 644 -311 l50 -46 -46 -58 c-188 -239 -308 -537 -335
-832 l-7 -72 -253 0 -254 0 0 675 0 674 53 -5 c28 -4 95 -15 148 -25z m-1262
-599 c130 -195 214 -425 237 -652 l7 -68 -342 0 -341 0 0 45 c0 62 33 226 65
320 51 154 117 280 219 418 l50 67 24 -22 c13 -13 49 -61 81 -108z"/>
<path d="M2811 4720 c-7 -39 -11 -72 -10 -74 20 -12 153 -46 158 -39 9 10 51
112 51 124 0 8 -101 43 -156 54 l-31 6 -12 -71z"/>
<path d="M3147 4647 c-21 -32 -59 -109 -55 -111 23 -17 110 -66 116 -66 4 1
25 26 46 57 l39 56 -26 21 c-15 12 -44 31 -66 43 l-39 22 -15 -22z"/>
<path d="M420 3344 c-121 -33 -213 -119 -285 -268 -25 -51 -45 -97 -45 -103 0
-12 128 -59 136 -50 2 2 22 40 43 84 45 93 88 146 145 176 36 19 56 22 161 21
126 -1 216 -18 350 -69 85 -32 245 -106 245 -114 0 -3 -53 -23 -118 -44 -295
-96 -582 -264 -831 -485 l-74 -66 7 89 c7 88 22 199 32 241 5 19 -1 23 -67 38
-40 9 -74 15 -75 13 -2 -2 -11 -48 -20 -102 -22 -126 -25 -486 -6 -625 76
-540 291 -997 655 -1395 l55 -60 51 50 c28 27 51 53 51 58 0 4 -28 38 -63 75
-237 253 -412 562 -518 912 -35 114 -75 316 -85 421 l-6 76 89 89 c291 291
656 494 1061 589 l53 13 107 -82 c123 -94 300 -266 392 -381 34 -44 65 -79 67
-79 21 7 112 82 110 91 -5 25 -176 219 -276 315 -310 294 -697 509 -1030 572
-102 20 -238 20 -311 0z"/>
<path d="M3399 3150 c-546 -52 -1023 -380 -1270 -872 -49 -98 -49 -98 -27
-107 13 -5 44 -18 70 -29 l46 -21 47 95 47 95 82 -3 81 -3 67 -205 c38 -113
67 -210 66 -217 -2 -9 -289 -222 -346 -257 -8 -5 -37 10 -78 39 l-65 47 7 46
c3 26 15 87 25 137 10 49 19 90 19 91 0 2 -25 10 -55 18 -30 9 -61 19 -69 22
-11 4 -19 -8 -30 -48 -70 -243 -66 -573 11 -838 147 -512 562 -928 1071 -1076
90 -26 224 -51 302 -56 l45 -3 3 72 c3 83 16 73 -123 92 -44 7 -102 17 -129
24 l-49 13 66 47 c37 27 67 51 67 55 0 4 -38 126 -85 272 -47 145 -84 269 -81
276 2 6 37 57 78 113 l73 101 277 0 276 0 76 -104 c42 -57 76 -112 76 -121 0
-9 -37 -130 -82 -268 -44 -139 -81 -257 -82 -263 -1 -6 28 -33 64 -59 61 -46
63 -48 40 -57 -26 -10 -164 -33 -252 -43 l-58 -6 0 -76 0 -75 68 7 c641 61
1168 473 1368 1072 153 457 89 963 -173 1363 -63 96 -192 249 -244 291 l-40
32 -48 -54 -49 -54 92 -95 91 -95 -82 -3 -83 -3 -88 -272 -89 -272 -164 -57
c-90 -31 -174 -56 -187 -55 -12 1 -96 56 -187 122 l-165 120 0 190 0 190 221
160 c121 88 225 165 230 171 5 7 0 38 -16 84 -14 41 -25 75 -25 77 0 14 212
-89 287 -140 l53 -36 40 57 c22 31 39 61 37 66 -2 6 -49 39 -106 73 -107 65
-252 127 -381 163 -162 45 -396 66 -561 50z m356 -161 c39 -6 77 -12 86 -15
19 -5 67 -150 53 -163 -5 -5 -85 -64 -177 -131 -102 -74 -173 -120 -182 -116
-11 4 -325 228 -354 252 -7 6 42 140 56 151 14 11 134 30 228 36 70 5 207 -2
290 -14z m-729 -156 l-24 -72 231 -169 232 -169 0 -188 0 -189 -168 -123 c-92
-68 -173 -123 -180 -123 -7 0 -89 25 -183 55 l-170 55 -90 272 -90 273 -83 5
-83 5 77 82 c92 100 204 191 314 256 92 55 235 120 239 109 1 -4 -9 -40 -22
-79z m1788 -610 c57 -115 101 -241 126 -363 30 -148 30 -148 -45 -199 l-64
-43 -178 128 c-98 70 -180 129 -182 130 -1 2 29 100 69 218 l72 216 79 0 79 0
44 -87z m-1096 -435 c92 -67 171 -125 176 -129 6 -5 -18 -96 -59 -224 l-69
-215 -225 2 -224 3 -69 214 c-55 169 -67 216 -56 222 7 4 87 62 178 128 90 67
168 121 173 121 4 0 83 -55 175 -122z m-828 -77 l126 -41 74 -232 c41 -128 75
-238 74 -243 -1 -6 -41 -66 -90 -133 l-88 -122 -287 0 -287 0 -22 -67 c-13
-38 -26 -72 -30 -76 -11 -12 -83 112 -130 221 -63 146 -116 375 -108 466 l3
38 63 -46 63 -47 232 169 c203 148 235 168 257 161 14 -5 81 -26 150 -48z
m1774 -158 c105 -76 173 -120 180 -114 6 4 37 27 69 50 l58 43 -6 -74 c-20
-223 -88 -432 -203 -622 l-36 -60 -26 80 -27 79 -289 3 -289 3 -85 119 c-47
65 -86 125 -88 133 -3 16 135 456 148 470 4 5 72 30 151 56 l144 48 65 -46
c36 -25 141 -101 234 -168z m-1633 -955 c34 -106 65 -203 69 -214 7 -18 -1
-28 -58 -69 l-67 -48 -100 52 c-119 62 -245 154 -338 248 l-67 69 26 77 26 77
223 0 224 0 62 -192z m1558 108 l26 -79 -90 -84 c-96 -91 -238 -191 -347 -244
l-66 -33 -57 39 c-30 21 -60 44 -66 51 -7 9 10 75 58 223 l68 211 224 -2 225
-3 25 -79z"/>
<path d="M970 2205 c-30 -19 -59 -36 -63 -37 -5 -2 12 -38 37 -80 l45 -77 -65
-36 c-35 -20 -64 -38 -64 -40 0 -7 71 -125 75 -125 2 0 32 16 65 36 34 20 63
34 64 32 12 -13 98 -170 95 -172 -2 -1 -30 -17 -61 -35 -32 -18 -58 -37 -58
-43 0 -15 64 -118 73 -118 5 0 35 15 67 34 l59 35 49 -87 49 -87 -61 -36 c-33
-20 -60 -41 -58 -48 1 -6 16 -36 33 -67 l31 -54 65 36 c53 29 67 34 74 23 5
-8 24 -40 41 -71 18 -32 37 -58 42 -58 7 0 109 54 124 66 2 1 -15 34 -37 72
-23 39 -41 74 -41 79 0 4 27 23 60 41 33 18 60 35 60 38 0 9 -62 114 -71 120
-5 3 -36 -11 -68 -30 -44 -25 -62 -31 -69 -23 -18 23 -94 159 -90 162 1 1 29
17 61 35 31 17 57 37 57 42 0 18 -61 118 -72 118 -6 0 -35 -14 -64 -31 -30
-17 -58 -28 -63 -25 -5 3 -29 41 -53 85 l-45 78 63 37 c35 20 64 38 64 41 0 7
-71 125 -75 125 -2 0 -31 -16 -65 -36 -33 -20 -62 -35 -64 -33 -2 2 -22 37
-45 77 -23 39 -43 72 -44 71 -1 0 -27 -16 -57 -34z"/>
<path d="M653 1328 c-29 -16 -53 -34 -53 -40 0 -26 186 -288 204 -288 6 1 33
21 61 45 l50 44 -33 43 c-18 24 -60 85 -94 136 -34 50 -67 92 -72 91 -6 0 -35
-14 -63 -31z"/>
<path d="M960 930 l-55 -49 55 -56 55 -56 48 51 c26 28 47 55 47 59 0 4 -21
28 -47 53 l-48 46 -55 -48z"/>
<path d="M1840 714 c-168 -103 -439 -211 -608 -244 -71 -14 -68 -16 -212 100
-41 33 -77 59 -80 57 -3 -1 -27 -25 -53 -53 l-47 -51 76 -63 c120 -100 318
-227 459 -296 343 -167 660 -209 831 -109 49 29 130 115 162 173 l23 42 -67
32 c-64 32 -67 32 -78 14 -38 -63 -92 -120 -133 -138 -136 -60 -411 -10 -677
124 l-80 40 120 40 c129 42 400 171 502 237 l64 42 -18 27 c-9 15 -27 42 -38
59 -12 18 -25 32 -31 32 -5 -1 -57 -30 -115 -65z"/>
</g>
</svg>
